<svg xmlns="http://www.w3.org/2000/svg" viewBox="0 0 279.81 101.24"><defs><style>.cls-1{isolation:isolate;}.cls-2{fill:#fff;}.cls-3{fill:#231f20;}.cls-4{opacity:0.17;mix-blend-mode:multiply;}.cls-5{fill:#999;}</style></defs><g class="cls-1"><g id="Layer_2" data-name="Layer 2"><g id="Layer_1-2" data-name="Layer 1"><path class="cls-2" d="M259.31,99.76H22.43C11.12,99.76,2,92.24,2,83V18.77C2,9.26,11.57,1.65,23.16,2L257.62,8.86c10.74.32,19.36,7.39,19.73,16.21l2.42,57.31C280.17,91.88,270.89,99.76,259.31,99.76Z"/><path class="cls-3" d="M259.31,99.76l-44.4.07-44.39.21-88.79.71-44.4.37-11.1.1c-1.87,0-3.64.07-5.65,0a25.06,25.06,0,0,1-5.8-1,25.62,25.62,0,0,1-2.78-1,26.48,26.48,0,0,1-2.64-1.38,24.44,24.44,0,0,1-2.46-1.7A21.63,21.63,0,0,1,4.71,94a17.32,17.32,0,0,1-3.29-5.13,17,17,0,0,1-1.18-6L0,38.41l0-11.1V19c0-.47.05-1,.08-1.55a8.24,8.24,0,0,1,.21-1.56,15.88,15.88,0,0,1,2.28-5.82A19.09,19.09,0,0,1,6.63,5.44a23.85,23.85,0,0,1,10.89-5A27.76,27.76,0,0,1,23.47,0L29,.18l11.1.34,22.18.69,44.37,1.5L195.4,6l44.36,1.68,11.09.41,5.55.21a30.36,30.36,0,0,1,5.59.61,22,22,0,0,1,10,4.94,16.22,16.22,0,0,1,5.46,9.64l.14,1.41c0,.47,0,.93.06,1.39l.1,2.77.21,5.55.41,11.09.84,22.18L279.68,79a41.12,41.12,0,0,1,0,5.55,13.84,13.84,0,0,1-1.7,5.26,16,16,0,0,1-3.43,4.34A18.92,18.92,0,0,1,270,97.27a24,24,0,0,1-2.55,1.11,24.58,24.58,0,0,1-2.67.75A25.49,25.49,0,0,1,259.31,99.76Zm0,0a26.14,26.14,0,0,0,5.5-.64,25.17,25.17,0,0,0,2.66-.77A23.81,23.81,0,0,0,270,97.24a18.93,18.93,0,0,0,4.54-3.13A15.94,15.94,0,0,0,278,89.77a14,14,0,0,0,1.67-5.23,42.55,42.55,0,0,0-.06-5.53l-.49-11.09-1-22.18-.52-11.08-.26-5.55-.13-2.77c0-.46,0-.93-.08-1.38l-.14-1.35a15.37,15.37,0,0,0-5.37-9.2,21.38,21.38,0,0,0-9.74-4.6,29,29,0,0,0-5.44-.49l-5.55-.12L239.72,9,195.34,8,106.56,6.16,62.18,5.06,40,4.45,28.9,4.14,23.35,4a24,24,0,0,0-5.1.39A19.81,19.81,0,0,0,9.16,8.49a14.87,14.87,0,0,0-3.25,3.66,11.73,11.73,0,0,0-1.77,4.43A5.88,5.88,0,0,0,4,17.76c0,.41-.06.77-.07,1.22v8.33l0,11.1L3.67,82.8a13.65,13.65,0,0,0,.89,4.79,14,14,0,0,0,2.6,4.2A17.7,17.7,0,0,0,9,93.56,20.51,20.51,0,0,0,11,95.05a23.29,23.29,0,0,0,2.25,1.23,22.68,22.68,0,0,0,2.42.91,21.85,21.85,0,0,0,5.09,1c1.68.12,3.61.09,5.44.12l11.1.09,44.4.37,88.79.72,44.39.2Z"/><g class="cls-4"><path class="cls-5" d="M9,27.81V86.12s1.56,8.21,11.74,8.21h243S277,93.16,277,84.94l-2-53.61L239.87,55.2,219.13,30.55l-94.7,15.26-13.69-16L91.56,33.42h-45L29,41.12Z"/></g></g></g></g></svg>