<svg xmlns="http://www.w3.org/2000/svg" viewBox="0 0 189.87 265"><defs><style>.cls-1{fill:#616161;}.cls-2{fill:#a0cb6b;}.cls-3{fill:#e0e0e0;}.cls-4{fill:#f6524f;}.cls-5{fill:#fff;}.cls-6{fill:#231f20;}.cls-7{fill:#83d49b;}.cls-8{fill:#fefdef;}.cls-9{font-size:65.81px;font-family:BebasNeue-Regular, Bebas Neue;}</style></defs><g id="Layer_2" data-name="Layer 2"><g id="Layer_2-2" data-name="Layer 2"><path class="cls-1" d="M165.14,262.5H24.72A22.3,22.3,0,0,1,2.43,240.19V24.81A22.3,22.3,0,0,1,24.72,2.5H165.14a22.3,22.3,0,0,1,22.29,22.31V240.19A22.3,22.3,0,0,1,165.14,262.5Z"/><path class="cls-2" d="M160.75,71.56H29.11A12.11,12.11,0,0,1,17,59.47V34.8A12.11,12.11,0,0,1,29.11,22.71H160.75A12.12,12.12,0,0,1,172.83,34.8V59.47A12.12,12.12,0,0,1,160.75,71.56Z"/><ellipse class="cls-1" cx="124.4" cy="63.59" rx="5.66" ry="5.49"/><ellipse class="cls-1" cx="139.96" cy="63.59" rx="5.66" ry="5.49"/><ellipse class="cls-1" cx="153.55" cy="63.59" rx="5.66" ry="5.49"/><path class="cls-3" d="M167.53,240.05H144.22a5.46,5.46,0,0,1-5.53-5.36v-22.6a5.46,5.46,0,0,1,5.53-5.36h23.31a5.46,5.46,0,0,1,5.53,5.36v22.6A5.46,5.46,0,0,1,167.53,240.05Z"/><path class="cls-3" d="M127,240.05H103.67a5.46,5.46,0,0,1-5.53-5.36v-22.6a5.46,5.46,0,0,1,5.53-5.36H127a5.46,5.46,0,0,1,5.53,5.36v22.6A5.46,5.46,0,0,1,127,240.05Z"/><path class="cls-3" d="M86.43,240.05H63.12a5.46,5.46,0,0,1-5.53-5.36v-22.6a5.46,5.46,0,0,1,5.53-5.36H86.43A5.46,5.46,0,0,1,92,212.09v22.6A5.46,5.46,0,0,1,86.43,240.05Z"/><path class="cls-3" d="M45.88,240.05H22.57A5.46,5.46,0,0,1,17,234.69v-22.6a5.46,5.46,0,0,1,5.53-5.36H45.88a5.46,5.46,0,0,1,5.53,5.36v22.6A5.46,5.46,0,0,1,45.88,240.05Z"/><path class="cls-3" d="M167.53,202.09H144.22a5.47,5.47,0,0,1-5.53-5.36v-22.6a5.46,5.46,0,0,1,5.53-5.36h23.31a5.46,5.46,0,0,1,5.53,5.36v22.6A5.47,5.47,0,0,1,167.53,202.09Z"/><path class="cls-3" d="M127,202.09H103.67a5.47,5.47,0,0,1-5.53-5.36v-22.6a5.46,5.46,0,0,1,5.53-5.36H127a5.46,5.46,0,0,1,5.53,5.36v22.6A5.47,5.47,0,0,1,127,202.09Z"/><path class="cls-3" d="M86.43,202.09H63.12a5.47,5.47,0,0,1-5.53-5.36v-22.6a5.46,5.46,0,0,1,5.53-5.36H86.43A5.46,5.46,0,0,1,92,174.13v22.6A5.47,5.47,0,0,1,86.43,202.09Z"/><path class="cls-3" d="M45.88,202.09H22.57A5.47,5.47,0,0,1,17,196.73v-22.6a5.46,5.46,0,0,1,5.53-5.36H45.88a5.46,5.46,0,0,1,5.53,5.36v22.6A5.47,5.47,0,0,1,45.88,202.09Z"/><path class="cls-3" d="M167.53,164.12H144.22a5.46,5.46,0,0,1-5.53-5.35v-22.6a5.46,5.46,0,0,1,5.53-5.36h23.31a5.46,5.46,0,0,1,5.53,5.36v22.6A5.46,5.46,0,0,1,167.53,164.12Z"/><path class="cls-3" d="M127,164.12H103.67a5.46,5.46,0,0,1-5.53-5.35v-22.6a5.46,5.46,0,0,1,5.53-5.36H127a5.46,5.46,0,0,1,5.53,5.36v22.6A5.46,5.46,0,0,1,127,164.12Z"/><path class="cls-3" d="M86.43,164.12H63.12a5.46,5.46,0,0,1-5.53-5.35v-22.6a5.46,5.46,0,0,1,5.53-5.36H86.43A5.46,5.46,0,0,1,92,136.17v22.6A5.46,5.46,0,0,1,86.43,164.12Z"/><path class="cls-3" d="M45.88,164.12H22.57A5.46,5.46,0,0,1,17,158.77v-22.6a5.46,5.46,0,0,1,5.53-5.36H45.88a5.46,5.46,0,0,1,5.53,5.36v22.6A5.46,5.46,0,0,1,45.88,164.12Z"/><path class="cls-4" d="M167.53,126.16H144.22a5.46,5.46,0,0,1-5.53-5.36V98.21a5.46,5.46,0,0,1,5.53-5.36h23.31a5.46,5.46,0,0,1,5.53,5.36V120.8A5.46,5.46,0,0,1,167.53,126.16Z"/><path class="cls-3" d="M127,126.16H103.67a5.46,5.46,0,0,1-5.53-5.36V98.21a5.46,5.46,0,0,1,5.53-5.36H127a5.46,5.46,0,0,1,5.53,5.36V120.8A5.46,5.46,0,0,1,127,126.16Z"/><path class="cls-3" d="M86.43,126.16H63.12a5.46,5.46,0,0,1-5.53-5.36V98.21a5.46,5.46,0,0,1,5.53-5.36H86.43A5.46,5.46,0,0,1,92,98.21V120.8A5.46,5.46,0,0,1,86.43,126.16Z"/><path class="cls-3" d="M45.88,126.16H22.57A5.46,5.46,0,0,1,17,120.8V98.21a5.46,5.46,0,0,1,5.53-5.36H45.88a5.46,5.46,0,0,1,5.53,5.36V120.8A5.46,5.46,0,0,1,45.88,126.16Z"/><rect class="cls-5" x="2.43" y="2.5" width="185" height="260" rx="22.79"/><path class="cls-6" d="M164.64,262.5l-53.18.09-53.17.25-26.59.21-6.65.05a25.6,25.6,0,0,1-6.74-1,25.68,25.68,0,0,1-6.19-2.89A26.37,26.37,0,0,1,7,254.67a25.91,25.91,0,0,1-3.59-5.84,26,26,0,0,1-1.75-6.65c-.2-2.34-.16-4.52-.19-6.74l-.06-6.65L1.19,202.2.29,95.85,0,42.67,0,29.38V25.22l0-.92c0-.61,0-1.22.12-1.83A27.22,27.22,0,0,1,2,15.37,27.45,27.45,0,0,1,5.84,9.11a26.85,26.85,0,0,1,5.47-4.9A26.79,26.79,0,0,1,18,1.08,27.5,27.5,0,0,1,25.23,0L78.4.09l53.18.25,26.59.2,6.66.07a27,27,0,0,1,7.08,1.14,26.74,26.74,0,0,1,6.42,3.14,27.06,27.06,0,0,1,5.25,4.83,26.88,26.88,0,0,1,3.62,6.13,26.51,26.51,0,0,1,1.7,6.9c.17,2.43.09,4.58.08,6.8l-.06,6.65-.23,26.59-.91,106.35-.25,53.18,0,13.3c0,2.21.05,4.43-.16,6.64a22.78,22.78,0,0,1-10.14,16.48,23.78,23.78,0,0,1-6,2.8A24.72,24.72,0,0,1,164.64,262.5Zm0,0a25,25,0,0,0,6.55-1,24.13,24.13,0,0,0,6-2.82,24.58,24.58,0,0,0,4.92-4.41,25.36,25.36,0,0,0,3.46-5.64,24.83,24.83,0,0,0,1.66-6.4c.2-2.2.14-4.42.14-6.63l0-13.3-.26-53.18-.9-106.35-.24-26.59-.05-6.65c0-2.2,0-4.48-.18-6.47a23.45,23.45,0,0,0-1.58-5.95,23.72,23.72,0,0,0-3.21-5.22,23.88,23.88,0,0,0-4.57-4.07A21,21,0,0,0,164.8,4.4l-6.63,0-26.59.2L78.4,4.9,25.23,5a22.11,22.11,0,0,0-5.84.85A21.55,21.55,0,0,0,14,8.34a22,22,0,0,0-4.42,3.93,22.41,22.41,0,0,0-3.1,5A22.09,22.09,0,0,0,5,23c-.07.49-.06,1-.1,1.48l0,.74v4.15l0,13.29L4.58,95.85,3.68,202.2l-.23,26.59-.06,6.65c0,2.21-.08,4.46.06,6.55a21.86,21.86,0,0,0,4.77,11.69A24.32,24.32,0,0,0,12.93,258a24.51,24.51,0,0,0,5.77,2.82,24,24,0,0,0,6.35,1l6.65.07,26.59.2,53.17.25Z"/><rect class="cls-5" x="2.43" y="2.5" width="185" height="260" rx="22.79"/><path class="cls-6" d="M25.23,2.5,78.4,2.4l53.18-.25L158.17,2l6.65-.05a23.23,23.23,0,0,1,12.92,3.86,26.08,26.08,0,0,1,5.11,4.56,26.2,26.2,0,0,1,3.59,5.85,25.81,25.81,0,0,1,1.76,6.65c.2,2.33.16,4.52.19,6.73l.06,6.65.23,26.59.9,106.35.26,53.18,0,13.3v4.16l0,.91c0,.62,0,1.23-.12,1.84a26.55,26.55,0,0,1-1.85,7.1,25.26,25.26,0,0,1-9.29,11.15,26.44,26.44,0,0,1-6.65,3.13,28,28,0,0,1-7.27,1.09l-53.18-.1-53.17-.25-26.59-.2L25,264.39A27,27,0,0,1,18,263.24a27,27,0,0,1-6.43-3.13,27.37,27.37,0,0,1-5.24-4.84,27.22,27.22,0,0,1-3.63-6.12,26.61,26.61,0,0,1-1.7-6.9c-.16-2.43-.08-4.59-.07-6.81l0-6.65.24-26.59.9-106.35.26-53.18,0-13.29c0-2.21,0-4.43.16-6.65a24.65,24.65,0,0,1,1.7-6.42,24.74,24.74,0,0,1,3.49-5.65,24.75,24.75,0,0,1,5-4.41,24.2,24.2,0,0,1,6-2.8A25.06,25.06,0,0,1,25.23,2.5Zm0,0a24.68,24.68,0,0,0-6.56,1,24,24,0,0,0-6,2.81,24.39,24.39,0,0,0-4.93,4.42,24.88,24.88,0,0,0-3.45,5.64,24.49,24.49,0,0,0-1.67,6.39c-.19,2.2-.13,4.42-.14,6.64l0,13.29.25,53.18L3.69,202.2l.23,26.59L4,235.44c0,2.21,0,4.49.17,6.48a23.49,23.49,0,0,0,1.58,5.94A23.39,23.39,0,0,0,9,253.08a23.59,23.59,0,0,0,4.57,4.07A23.14,23.14,0,0,0,19,259.73a22.8,22.8,0,0,0,6,.86l6.64,0,26.59-.2,53.17-.25,53.18-.09a22.59,22.59,0,0,0,5.84-.85,21.55,21.55,0,0,0,5.35-2.49,20.23,20.23,0,0,0,9-14.67c.07-.49.06-1,.09-1.48l.05-.75v-4.14l0-13.3.26-53.18.9-106.35.23-26.59.06-6.65c0-2.21.08-4.46-.06-6.55a24,24,0,0,0-1.53-6.18,23.92,23.92,0,0,0-3.25-5.51A25.22,25.22,0,0,0,176.94,7a24.7,24.7,0,0,0-5.77-2.82,24.86,24.86,0,0,0-6.36-1l-6.64-.06-26.59-.21L78.4,2.59Z"/><rect class="cls-7" x="14.43" y="14.5" width="161" height="200.73" rx="8.45"/><rect class="cls-7" x="14.43" y="14.5" width="161" height="200.73" rx="8.45"/><circle class="cls-8" cx="94.93" cy="237.93" r="17.13"/><path class="cls-6" d="M112.06,237.93a17.63,17.63,0,0,1-29.84,12.72,17.88,17.88,0,0,1-4-5.79,17.69,17.69,0,0,1,4-19.65,17.76,17.76,0,0,1,12.72-4.9,17.66,17.66,0,0,1,17.13,17.62Zm0,0a17.21,17.21,0,0,0-1.34-6.53,16.67,16.67,0,1,0,0,13.07A17.22,17.22,0,0,0,112.06,237.93Z"/><text class="cls-9" transform="translate(13.96 153.89)">123456</text></g></g></svg>