<svg xmlns="http://www.w3.org/2000/svg" viewBox="0 0 613.54 267.36"><defs><style>.cls-1{isolation:isolate;}.cls-2,.cls-3{fill:#58b7ff;}.cls-2{stroke:#231f20;stroke-miterlimit:10;stroke-width:3px;}.cls-3{opacity:0.5;mix-blend-mode:multiply;}.cls-4{fill:#231f20;}</style></defs><g class="cls-1"><g id="Layer_2" data-name="Layer 2"><g id="Layer_1-2" data-name="Layer 1"><polygon class="cls-2" points="598.87 265.87 1.5 265.87 1.5 47.44 598.87 47.44 612.03 136.92 598.87 265.87"/><path class="cls-3" d="M14.34,259V88.7L70.69,106s20.45,68.57,25.48,73.47,91.91,41.63,91.91,41.63l37.57-26.93,71.61,25.71,120.91-66.12s72.78-68.86,76.3-65,71.61-.16,71.61-.16l8.22,37,28.17,9.8L589.56,259Z"/><polygon class="cls-4" points="216.03 6.2 153.25 0 75.27 6.2 47.65 47.44 75.27 88.69 216.03 88.69 243.65 47.44 216.03 6.2"/><polygon class="cls-4" points="493.07 6.2 422.69 0 352.31 6.2 324.69 47.44 352.31 88.69 493.07 88.69 520.69 47.44 493.07 6.2"/></g></g></g></svg>