<svg xmlns="http://www.w3.org/2000/svg" viewBox="0 0 255 109.63"><defs><style>.cls-1{isolation:isolate;}.cls-2,.cls-3{fill:#ff58b6;}.cls-2{stroke:#231f20;stroke-miterlimit:10;stroke-width:3px;}.cls-3{opacity:0.5;mix-blend-mode:multiply;}</style></defs><g class="cls-1"><g id="Layer_2" data-name="Layer 2"><g id="Layer_1-2" data-name="Layer 1"><path class="cls-2" d="M20.07,108.13H234.93A18.44,18.44,0,0,0,253.5,89.81v-70A18.45,18.45,0,0,0,234.27,1.51L21.6,9A18.43,18.43,0,0,0,3.71,26.68l-2.2,62.5A18.44,18.44,0,0,0,20.07,108.13Z"/><path class="cls-3" d="M19.25,15.5,233.87,7.39s14-.43,14,15.36V74l-71.54-29L123.07,63.29,79.5,50.49,80,66.27,35.39,63.71,9,55.15V25.74S6.34,15.5,19.25,15.5Z"/></g></g></g></svg>