<svg xmlns="http://www.w3.org/2000/svg" viewBox="0 0 535.78 320.97"><defs><style>.cls-1{isolation:isolate;}.cls-2,.cls-3{fill:#5db1fe;}.cls-2{stroke:#231f20;stroke-miterlimit:10;stroke-width:2px;}.cls-3{opacity:0.5;mix-blend-mode:multiply;}</style></defs><g class="cls-1"><g id="Layer_2" data-name="Layer 2"><g id="Layer_2-2" data-name="Layer 2"><polygon class="cls-2" points="497.17 319.97 1 319.97 1 63.27 497.17 63.27 534.74 230.75 497.17 319.97"/><polygon points="179.09 0 78.22 0 27.79 63.27 78.22 126.55 179.09 126.55 229.52 63.27 179.09 0"/><polygon class="cls-3" points="6.48 204.14 6.48 71.88 27.79 71.88 76.91 138.01 188.04 138.01 235 71.88 490.13 71.88 517.52 198.66 375.87 172.84 371.17 219.79 309.35 149.36 238.91 208.06 170.04 182.23 118.39 198.66 66.74 159.53 44.04 204.93 16.65 232.32 6.48 204.14"/></g></g></g></svg>