<svg xmlns="http://www.w3.org/2000/svg" viewBox="0 0 185.33 101.02"><defs><style>.cls-1{fill:#58b7ff;}.cls-2{fill:#231f20;}</style></defs><g id="Layer_2" data-name="Layer 2"><g id="Layer_1-2" data-name="Layer 1"><path class="cls-1" d="M171.76,99.76H15.46C8,99.76,2,92.24,2,83V18.77C2,9.26,8.3,1.65,15.94,2L170.65,8.86c7.09.32,12.77,7.39,13,16.21l1.59,57.31C185.53,91.88,179.41,99.76,171.76,99.76Z"/><path class="cls-2" d="M171.76,99.76l-33,.07-33,.21-66,.71-16.51.19-4.13,0L17,101H16a10.22,10.22,0,0,1-1.09,0,13.1,13.1,0,0,1-8.28-3.44,18,18,0,0,1-4.91-7.37,21.31,21.31,0,0,1-1.07-4.3L.51,84.8.45,83.69c0-.76,0-1.42,0-2.11L.23,65.08l-.2-33,0-8.26V18.65l.05-1.13a21.41,21.41,0,0,1,.22-2.25A21,21,0,0,1,3.51,6.82,15.91,15.91,0,0,1,10.69.9,12.6,12.6,0,0,1,15.44,0H16l.52,0,1,.05,2.06.1,8.24.38,16.49.77L77.35,3l65.92,3.65,16.48.92L168,8a41.85,41.85,0,0,1,4.2.34,12.32,12.32,0,0,1,4,1.55,15.64,15.64,0,0,1,5.7,6.27,21,21,0,0,1,1.51,3.95,21,21,0,0,1,.62,4.17l.33,16.52.71,33,.21,8.25A20.4,20.4,0,0,1,184,90.18a16.39,16.39,0,0,1-4.66,6.71A13.33,13.33,0,0,1,175.8,99,12.36,12.36,0,0,1,171.76,99.76Zm0,0a12.07,12.07,0,0,0,4-.78,13,13,0,0,0,3.51-2.12,16.27,16.27,0,0,0,4.62-6.71,20.58,20.58,0,0,0,1.28-8.08L185,73.82l-1.13-33c-.19-5.49-.38-11-.65-16.47a20.48,20.48,0,0,0-.68-4A19,19,0,0,0,181,16.68,14.42,14.42,0,0,0,175.59,11,11.35,11.35,0,0,0,172,9.69c-1.24-.17-2.66-.17-4-.22l-8.24-.28-16.5-.54-66-2.21-33-1.27L27.72,4.48l-8.25-.35L17.41,4l-1,0-.51,0h-.43a8.92,8.92,0,0,0-3.3.63A11.89,11.89,0,0,0,6.78,9.05a17,17,0,0,0-2.64,6.82c-.06.62-.19,1.24-.19,1.86l0,.94v5.14l0,8.26-.2,33L3.5,81.58c0,.68,0,1.4,0,2l0,1,.11,1a18.2,18.2,0,0,0,.83,3.72,15.33,15.33,0,0,0,4,6.32A10.49,10.49,0,0,0,15,98.46a9.67,9.67,0,0,0,1,0h1l2.06,0,4.13,0,16.51.18,66,.72,33,.2Z"/></g></g></svg>